<svg width="302" height="309" viewBox="0 0 302 309" fill="none" xmlns="http://www.w3.org/2000/svg">
<rect x="182.59" y="334.277" width="73.0849" height="73.0849" transform="rotate(-135 182.59 334.277)" stroke="white" stroke-opacity="0.21" stroke-width="2"/>
<rect x="182.59" y="357.586" width="73.0849" height="73.0849" transform="rotate(-135 182.59 357.586)" stroke="white" stroke-opacity="0.21" stroke-width="2"/>
<rect x="32.1328" y="181.273" width="73.0849" height="73.0849" transform="rotate(-135 32.1328 181.273)" stroke="white" stroke-opacity="0.21" stroke-width="2"/>
<rect x="32.1328" y="204.582" width="73.0849" height="73.0849" transform="rotate(-135 32.1328 204.582)" stroke="white" stroke-opacity="0.21" stroke-width="2"/>
<rect x="3.08984" y="298.859" width="73.0849" height="73.0849" transform="rotate(-135 3.08984 298.859)" stroke="white" stroke-opacity="0.21" stroke-width="2"/>
<rect x="3.08984" y="322.168" width="73.0849" height="73.0849" transform="rotate(-135 3.08984 322.168)" stroke="white" stroke-opacity="0.21" stroke-width="2"/>
<rect x="109.344" y="257.775" width="73.0849" height="73.0849" transform="rotate(-135 109.344 257.775)" stroke="white" stroke-opacity="0.21" stroke-width="2"/>
<rect x="109.344" y="281.084" width="73.0849" height="73.0849" transform="rotate(-135 109.344 281.084)" stroke="white" stroke-opacity="0.21" stroke-width="2"/>
<rect x="109.344" y="104.772" width="73.0849" height="73.0849" transform="rotate(-135 109.344 104.772)" stroke="white" stroke-opacity="0.21" stroke-width="2"/>
<rect x="109.344" y="128.081" width="73.0849" height="73.0849" transform="rotate(-135 109.344 128.081)" stroke="white" stroke-opacity="0.21" stroke-width="2"/>
<rect x="182.305" y="181.273" width="73.0849" height="73.0849" transform="rotate(-135 182.305 181.273)" stroke="white" stroke-opacity="0.21" stroke-width="2"/>
<rect x="182.305" y="204.582" width="73.0849" height="73.0849" transform="rotate(-135 182.305 204.582)" stroke="white" stroke-opacity="0.21" stroke-width="2"/>
<rect x="248.18" y="257.775" width="73.0849" height="73.0849" transform="rotate(-135 248.18 257.775)" stroke="white" stroke-opacity="0.21" stroke-width="2"/>
<rect x="248.18" y="281.084" width="73.0849" height="73.0849" transform="rotate(-135 248.18 281.084)" stroke="white" stroke-opacity="0.21" stroke-width="2"/>
</svg>
