<svg width="310" height="288" viewBox="0 0 310 288" fill="none" xmlns="http://www.w3.org/2000/svg">
<rect x="118.684" y="-46.2767" width="73.0849" height="73.0849" transform="rotate(45 118.684 -46.2767)" stroke="white" stroke-opacity="0.21" stroke-width="2"/>
<rect x="118.684" y="-69.5858" width="73.0849" height="73.0849" transform="rotate(45 118.684 -69.5858)" stroke="white" stroke-opacity="0.21" stroke-width="2"/>
<rect x="269.141" y="106.727" width="73.0849" height="73.0849" transform="rotate(45 269.141 106.727)" stroke="white" stroke-opacity="0.21" stroke-width="2"/>
<rect x="269.141" y="83.4176" width="73.0849" height="73.0849" transform="rotate(45 269.141 83.4176)" stroke="white" stroke-opacity="0.21" stroke-width="2"/>
<rect x="298.184" y="-10.8592" width="73.0849" height="73.0849" transform="rotate(45 298.184 -10.8592)" stroke="white" stroke-opacity="0.21" stroke-width="2"/>
<rect x="298.184" y="-34.1683" width="73.0849" height="73.0849" transform="rotate(45 298.184 -34.1683)" stroke="white" stroke-opacity="0.21" stroke-width="2"/>
<rect x="191.93" y="30.2248" width="73.0849" height="73.0849" transform="rotate(45 191.93 30.2248)" stroke="white" stroke-opacity="0.21" stroke-width="2"/>
<rect x="191.93" y="6.91568" width="73.0849" height="73.0849" transform="rotate(45 191.93 6.91568)" stroke="white" stroke-opacity="0.21" stroke-width="2"/>
<rect x="191.93" y="183.228" width="73.0849" height="73.0849" transform="rotate(45 191.93 183.228)" stroke="white" stroke-opacity="0.21" stroke-width="2"/>
<rect x="191.93" y="159.919" width="73.0849" height="73.0849" transform="rotate(45 191.93 159.919)" stroke="white" stroke-opacity="0.21" stroke-width="2"/>
<rect x="118.969" y="106.727" width="73.0849" height="73.0849" transform="rotate(45 118.969 106.727)" stroke="white" stroke-opacity="0.21" stroke-width="2"/>
<rect x="118.969" y="83.4176" width="73.0849" height="73.0849" transform="rotate(45 118.969 83.4176)" stroke="white" stroke-opacity="0.21" stroke-width="2"/>
<rect x="53.0938" y="30.2248" width="73.0849" height="73.0849" transform="rotate(45 53.0938 30.2248)" stroke="white" stroke-opacity="0.21" stroke-width="2"/>
<rect x="53.0938" y="6.91568" width="73.0849" height="73.0849" transform="rotate(45 53.0938 6.91568)" stroke="white" stroke-opacity="0.21" stroke-width="2"/>
</svg>
